<svg width="566" height="730" viewBox="0 0 566 730" fill="none" xmlns="http://www.w3.org/2000/svg">
<path d="M331.913 130.676H302.354L266.208 86.1069V130.676H243.235V15.8074H266.208V60.3763L302.354 15.8074H331.913L283.515 73.2416L331.913 130.676Z" fill="white"/>
<path d="M527.749 317.074C527.749 321.975 526.881 326.57 525.146 330.858C523.512 335.147 521.214 338.873 518.253 342.039C515.292 345.102 511.821 347.552 507.839 349.39C503.959 351.126 499.823 351.994 495.433 351.994H474.603V396.41H452.089V281.541H495.433C499.823 281.541 503.959 282.511 507.839 284.451C511.821 286.289 515.292 288.842 518.253 292.109C521.214 295.274 523.512 299.001 525.146 303.29C526.881 307.578 527.749 312.173 527.749 317.074ZM505.388 317.074C505.388 315.644 505.133 314.164 504.622 312.632C504.112 311.101 503.397 309.722 502.478 308.497C501.661 307.272 500.691 306.251 499.568 305.434C498.445 304.617 497.22 304.209 495.892 304.209H474.603V329.327H495.892C497.22 329.327 498.445 328.969 499.568 328.255C500.793 327.438 501.814 326.468 502.631 325.345C503.448 324.119 504.112 322.792 504.622 321.362C505.133 319.933 505.388 318.503 505.388 317.074Z" fill="white"/>
<path d="M317.875 583.924H276.063V610.421H314.199V629.872H276.063V677.504H253.089V562.635H317.875V583.924Z" fill="white"/>
<path d="M112.686 302.83H70.8735V329.327H109.01V348.778H70.8735V396.41H47.8998V281.541H112.686V302.83Z" fill="white"/>
<path d="M73.7061 545.062L72.2272 543.586C70.4869 541.847 69.5092 539.488 69.5092 537.029C69.5092 534.57 70.4869 532.211 72.2272 530.472L411.267 191.771C415.07 187.964 419.623 184.988 424.638 183.032C429.653 181.076 435.02 180.182 440.398 180.407C443.926 180.554 447.08 180.761 448.967 180.894C450.109 180.974 450.785 181.032 450.785 181.032C450.785 181.032 519.686 188.018 544.21 192.426C546.936 192.912 549.113 193.372 550.588 193.783C565.339 197.908 565.339 209.111 564.454 217.654C561.799 228.265 555.974 233.061 550.809 235.194C546.717 236.839 542.202 237.118 537.939 235.99C536.718 235.68 535.12 235.277 533.084 234.765C525.962 232.983 513.504 229.902 493.344 225.024C469.489 220.798 451.776 219.586 438.721 219.887C410.984 220.515 404.24 227.973 404.24 227.973L86.8336 545.062C85.0927 546.801 82.7317 547.778 80.2699 547.778C77.8081 547.778 75.4471 546.801 73.7061 545.062V545.062Z" fill="#F0F6F0" stroke="#3D3D3D" stroke-width="0.837" stroke-miterlimit="10"/>
<path d="M533.085 234.765L544.21 192.426C546.936 192.912 549.113 193.372 550.588 193.783C565.339 197.908 565.339 209.111 564.454 217.654C561.799 228.266 555.974 233.061 550.809 235.194C546.717 236.839 542.203 237.118 537.939 235.99C536.718 235.68 535.121 235.277 533.085 234.765Z" fill="#A5803A"/>
<path d="M73.7061 545.062L72.2272 543.586C70.4869 541.847 69.5092 539.488 69.5092 537.029C69.5092 534.57 70.4869 532.211 72.2272 530.472L411.267 191.771C415.07 187.964 419.623 184.988 424.638 183.032C429.653 181.076 435.02 180.182 440.398 180.407C443.926 180.554 447.08 180.761 448.967 180.894L438.724 219.887C410.986 220.515 404.242 227.973 404.242 227.973L86.8336 545.062C85.0927 546.801 82.7317 547.778 80.2699 547.778C77.8081 547.778 75.4471 546.801 73.7061 545.062V545.062Z" fill="#A5803A"/>
<path d="M517.568 230.727L532.616 190.575L526.044 232.945L517.568 230.727Z" fill="#4F4F4F"/>
<path d="M504.168 227.584L518.822 188.71L512.647 229.789L504.168 227.584Z" fill="#4F4F4F"/>
<path d="M490.777 224.336L504.99 186.99L499.26 226.532L490.777 224.336Z" fill="#4F4F4F"/>
<path d="M477.244 222.026L490.801 185.335L485.752 224.12L477.244 222.026Z" fill="#4F4F4F"/>
<path d="M462.3 220.098L476.256 183.733L470.782 222.293L462.3 220.098Z" fill="#4F4F4F"/>
<path d="M447.681 218.97L461.757 182.168L456.164 221.166L447.681 218.97Z" fill="#4F4F4F"/>
<path d="M377.863 231.247L365.977 243.633C362.179 247.559 357.566 252.323 352.281 257.791C346.996 263.258 341.029 269.432 334.457 276.101C327.885 282.769 320.8 290.027 313.29 297.686L289.622 321.735L264.208 347.351L237.893 373.726L211.492 400.009L185.853 425.397C169.217 441.86 153.536 457.073 140.173 470.189C133.498 476.753 127.322 482.714 121.845 487.993L107.672 501.676L95.271 513.548L107.155 501.16L120.851 487.001C126.136 481.529 132.104 475.361 138.675 468.691C151.804 455.342 167.032 439.676 183.51 423.057L208.925 397.443L235.234 371.07L261.636 344.788L287.276 319.4C295.625 311.2 303.696 303.273 311.349 295.755L332.96 274.609C339.635 268.044 345.813 262.086 351.288 256.804L365.458 243.115L377.863 231.247Z" fill="#F0F6F0"/>
<path d="M492.374 545.063L493.853 543.586C495.593 541.847 496.571 539.488 496.571 537.029C496.571 534.57 495.593 532.211 493.853 530.472L154.813 191.771C151.01 187.964 146.457 184.988 141.442 183.032C136.427 181.076 131.06 180.182 125.682 180.407C122.154 180.554 118.999 180.762 117.114 180.894C115.971 180.974 115.295 181.032 115.295 181.032C115.295 181.032 46.3935 188.018 21.8696 192.426C19.1442 192.912 16.9667 193.372 15.4923 193.783C0.740969 197.908 0.740964 209.111 1.62602 217.654C4.28235 228.265 10.106 233.061 15.2714 235.194C19.363 236.839 23.8775 237.118 28.141 235.99C29.3633 235.68 30.9607 235.277 32.9967 234.765C40.1175 232.983 52.5774 229.902 72.7358 225.024C96.591 220.798 114.304 219.586 127.359 219.887C155.096 220.515 161.84 227.974 161.84 227.974L479.242 545.063C480.104 545.924 481.127 546.608 482.254 547.074C483.381 547.541 484.588 547.781 485.808 547.781C487.027 547.781 488.235 547.541 489.361 547.074C490.488 546.608 491.512 545.924 492.374 545.063V545.063Z" fill="#F0F6F0" stroke="#3D3D3D" stroke-width="0.837" stroke-miterlimit="10"/>
<path d="M32.9967 234.765L21.8696 192.426C19.1442 192.912 16.9667 193.372 15.4923 193.783C0.740969 197.908 0.740964 209.111 1.62602 217.654C4.28235 228.266 10.106 233.061 15.2714 235.194C19.363 236.839 23.8775 237.118 28.141 235.99C29.3633 235.68 30.9573 235.277 32.9967 234.765Z" fill="#A5803A"/>
<path d="M492.374 545.063L493.853 543.586C495.593 541.847 496.571 539.488 496.571 537.029C496.571 534.57 495.593 532.211 493.853 530.472L154.813 191.771C151.01 187.964 146.457 184.988 141.442 183.032C136.427 181.076 131.061 180.182 125.682 180.407C122.154 180.554 119 180.762 117.114 180.894L127.358 219.887C155.095 220.515 161.839 227.974 161.839 227.974L479.242 545.063C480.104 545.924 481.128 546.608 482.254 547.074C483.381 547.541 484.588 547.781 485.808 547.781C487.027 547.781 488.235 547.541 489.362 547.074C490.488 546.608 491.512 545.924 492.374 545.063V545.063Z" fill="#A5803A"/>
<path d="M48.5078 230.727L33.4595 190.575L40.0312 232.945L48.5078 230.727Z" fill="#4F4F4F"/>
<path d="M61.9171 227.584L47.2624 188.71L53.4371 229.789L61.9171 227.584Z" fill="#4F4F4F"/>
<path d="M75.3025 224.336L61.0898 186.99L66.8202 226.532L75.3025 224.336Z" fill="#4F4F4F"/>
<path d="M88.836 222.026L75.2793 185.335L80.3284 224.12L88.836 222.026Z" fill="#4F4F4F"/>
<path d="M103.781 220.098L89.8249 183.733L95.2987 222.293L103.781 220.098Z" fill="#4F4F4F"/>
<path d="M118.399 218.97L104.323 182.168L109.916 221.166L118.399 218.97Z" fill="#4F4F4F"/>
<path d="M188.217 231.247L200.103 243.633L213.799 257.791C219.086 263.26 225.05 269.432 231.622 276.101L252.79 297.686C260.313 305.332 268.249 313.395 276.459 321.735L301.871 347.351L328.179 373.726L354.579 400.009L380.218 425.397C396.854 441.86 412.536 457.073 425.899 470.189C432.574 476.753 438.75 482.714 444.227 487.993L458.399 501.676L470.8 513.548L458.916 501.16C455.117 497.235 450.506 492.468 445.22 487.001C439.933 481.534 433.967 475.361 427.396 468.691C414.267 455.342 399.039 439.676 382.56 423.057L357.146 397.443L330.836 371.07C321.99 362.263 313.144 353.456 304.435 344.788L278.794 319.4L254.721 295.755L233.114 274.609C226.438 268.044 220.26 262.086 214.785 256.804L200.615 243.115L188.217 231.247Z" fill="#F0F6F0"/>
<path d="M282.087 528.856C278.892 528.867 275.751 528.036 272.981 526.448C241.594 508.32 215.533 482.261 197.415 450.889C179.297 419.517 169.759 383.935 169.759 347.716C169.759 311.497 179.297 275.915 197.415 244.543C215.533 213.171 241.594 187.112 272.981 168.984C275.756 167.406 278.894 166.576 282.087 166.576C285.28 166.576 288.418 167.406 291.193 168.984C322.58 187.112 348.641 213.171 366.759 244.543C384.877 275.915 394.415 311.497 394.415 347.716C394.415 383.935 384.877 419.517 366.759 450.889C348.641 482.261 322.58 508.32 291.193 526.448C288.422 528.036 285.281 528.867 282.087 528.856Z" fill="#1A1818" stroke="#482984" stroke-width="6" stroke-miterlimit="10"/>
<mask id="mask0" mask-type="alpha" maskUnits="userSpaceOnUse" x="166" y="163" width="232" height="369">
<path d="M282.087 528.856C278.892 528.867 275.751 528.036 272.981 526.448C241.594 508.32 215.533 482.261 197.415 450.889C179.297 419.517 169.759 383.935 169.759 347.716C169.759 311.497 179.297 275.915 197.415 244.543C215.533 213.171 241.594 187.112 272.981 168.984C275.756 167.406 278.894 166.576 282.087 166.576C285.28 166.576 288.418 167.406 291.193 168.984C322.58 187.112 348.641 213.171 366.759 244.543C384.877 275.915 394.415 311.497 394.415 347.716C394.415 383.935 384.877 419.517 366.759 450.889C348.641 482.261 322.58 508.32 291.193 526.448C288.422 528.036 285.281 528.867 282.087 528.856Z" fill="black" stroke="black" stroke-width="6" stroke-miterlimit="10"/>
</mask>
<g mask="url(#mask0)">
<path d="M235.885 449.657C225.441 418.888 219.95 383.569 219.95 347.716C219.95 311.863 225.441 276.545 235.885 245.775C240.746 231.172 247.072 217.098 254.767 203.767C233.79 221.445 216.93 243.487 205.364 268.35C193.798 293.214 187.806 320.301 187.806 347.718C187.806 375.135 193.798 402.222 205.364 427.086C216.93 451.95 233.79 473.991 254.767 491.67C247.101 478.322 240.776 464.249 235.885 449.657V449.657Z" fill="white"/>
<path d="M193.568 359.355C193.459 314.254 209.678 270.635 239.233 236.543C243.549 225.273 248.744 214.359 254.771 203.901C221.595 231.85 199.092 270.383 191.065 312.99C183.038 355.596 189.978 399.665 210.714 437.751C199.403 413.161 193.553 386.417 193.565 359.355H193.568Z" fill="#BDBDBD"/>
<path d="M282.087 184.636C250.349 219.686 230.797 281.494 230.797 347.716C230.797 413.938 250.349 475.744 282.087 510.795C310.749 494.273 334.551 470.504 351.101 441.876C367.65 413.249 376.363 380.774 376.363 347.715C376.363 314.657 367.65 282.182 351.101 253.554C334.551 224.927 310.749 201.157 282.087 184.636V184.636Z" fill="white"/>
<path d="M204.799 359.311C204.796 359.243 204.794 359.175 204.795 359.107L204.297 359.102L204.296 359.102L204.799 359.311ZM204.799 359.311L204.802 359.602H204.323L204.799 359.311ZM208.208 363.011V363.011V363.011Z" fill="#1A1818" stroke="#663795"/>
<path d="M205.046 335.543C204.902 335.191 204.819 334.818 204.799 334.439L204.797 334.226C204.793 333.777 204.878 333.333 205.048 332.918C205.218 332.503 205.469 332.126 205.786 331.809C206.103 331.492 206.481 331.241 206.896 331.072C207.312 330.902 207.757 330.817 208.206 330.821L208.206 330.821H208.21L247.839 330.821L247.844 330.821C248.292 330.817 248.738 330.902 249.153 331.072C249.569 331.241 249.946 331.492 250.263 331.809C250.581 332.126 250.831 332.503 251.001 332.918C251.171 333.333 251.256 333.777 251.252 334.226L251.252 334.226L251.252 334.235C251.256 334.683 251.171 335.127 251.001 335.542C250.831 335.957 250.58 336.334 250.263 336.651C249.946 336.968 249.568 337.219 249.153 337.388C248.737 337.558 248.292 337.644 247.843 337.64H247.839H208.208V337.64L208.203 337.64C207.755 337.644 207.309 337.558 206.894 337.389C206.479 337.219 206.101 336.968 205.784 336.651C205.467 336.334 205.216 335.957 205.046 335.543Z" fill="#1A1818" stroke="#663795"/>
<path d="M205.046 312.215C204.902 311.863 204.819 311.49 204.799 311.111L204.797 310.898C204.793 310.45 204.878 310.005 205.048 309.59C205.218 309.175 205.469 308.798 205.786 308.481C206.103 308.164 206.481 307.914 206.896 307.744C207.312 307.574 207.757 307.489 208.206 307.493L208.206 307.493H208.21L247.839 307.493L247.843 307.493C248.292 307.489 248.737 307.575 249.153 307.744C249.568 307.914 249.946 308.165 250.263 308.482C250.58 308.799 250.831 309.176 251.001 309.591C251.171 310.005 251.256 310.45 251.252 310.898L251.252 310.898L251.252 310.907C251.256 311.355 251.171 311.8 251.001 312.215C250.831 312.63 250.581 313.007 250.263 313.324C249.946 313.641 249.569 313.891 249.153 314.061C248.738 314.231 248.292 314.316 247.844 314.312H247.839H208.208V314.312L208.203 314.312C207.755 314.316 207.309 314.231 206.894 314.061C206.479 313.891 206.101 313.641 205.784 313.324C205.467 313.007 205.216 312.63 205.046 312.215Z" fill="#1A1818" stroke="#663795"/>
<path d="M251.252 383.129L251.752 383.134L251.252 383.138C251.256 383.586 251.171 384.031 251.001 384.446C250.831 384.86 250.58 385.237 250.263 385.554C249.946 385.871 249.568 386.122 249.153 386.292C248.737 386.462 248.292 386.547 247.843 386.543H247.839H208.208V386.543L208.203 386.543C207.755 386.547 207.309 386.462 206.894 386.292C206.479 386.122 206.101 385.872 205.784 385.555C205.467 385.238 205.216 384.861 205.046 384.446C204.902 384.094 204.819 383.721 204.799 383.342L204.797 383.129C204.793 382.681 204.878 382.236 205.048 381.821C205.218 381.406 205.469 381.029 205.786 380.712C206.103 380.395 206.481 380.145 206.896 379.975C207.312 379.805 207.757 379.72 208.206 379.724L208.206 379.724H208.21L247.839 379.724L247.844 379.724C248.292 379.72 248.738 379.805 249.153 379.975C249.569 380.145 249.946 380.395 250.263 380.712C250.581 381.029 250.831 381.406 251.001 381.821C251.171 382.236 251.256 382.681 251.252 383.129Z" fill="#1A1818" stroke="#663795"/>
</g>
<mask id="mask1" mask-type="alpha" maskUnits="userSpaceOnUse" x="230" y="184" width="147" height="327">
<path d="M282.087 184.636C250.349 219.686 230.797 281.494 230.797 347.716C230.797 413.938 250.349 475.744 282.087 510.795C310.749 494.273 334.551 470.504 351.101 441.876C367.65 413.249 376.363 380.774 376.363 347.715C376.363 314.657 367.65 282.182 351.101 253.554C334.551 224.927 310.749 201.157 282.087 184.636V184.636Z" fill="white"/>
</mask>
<g mask="url(#mask1)">
<path d="M267.891 419.824C268.779 419.824 269.498 419.105 269.498 418.219C269.498 417.332 268.779 416.614 267.891 416.614C267.004 416.614 266.285 417.332 266.285 418.219C266.285 419.105 267.004 419.824 267.891 419.824Z" fill="#BDBDBD"/>
<path d="M267.891 435.611C269.075 435.611 270.034 434.653 270.034 433.471C270.034 432.288 269.075 431.33 267.891 431.33C266.708 431.33 265.748 432.288 265.748 433.471C265.748 434.653 266.708 435.611 267.891 435.611Z" fill="#BDBDBD"/>
<path d="M267.891 451.263C269.297 451.263 270.436 450.125 270.436 448.721C270.436 447.317 269.297 446.179 267.891 446.179C266.486 446.179 265.347 447.317 265.347 448.721C265.347 450.125 266.486 451.263 267.891 451.263Z" fill="#BDBDBD"/>
<path d="M267.891 466.782C269.519 466.782 270.838 465.464 270.838 463.838C270.838 462.213 269.519 460.895 267.891 460.895C266.264 460.895 264.945 462.213 264.945 463.838C264.945 465.464 266.264 466.782 267.891 466.782Z" fill="#BDBDBD"/>
<path d="M267.891 482.567C269.814 482.567 271.373 481.01 271.373 479.089C271.373 477.168 269.814 475.611 267.891 475.611C265.969 475.611 264.41 477.168 264.41 479.089C264.41 481.01 265.969 482.567 267.891 482.567Z" fill="#BDBDBD"/>
<path d="M267.891 498.22C270.036 498.22 271.775 496.483 271.775 494.341C271.775 492.198 270.036 490.461 267.891 490.461C265.747 490.461 264.008 492.198 264.008 494.341C264.008 496.483 265.747 498.22 267.891 498.22Z" fill="#BDBDBD"/>
<path d="M267.891 513.872C270.258 513.872 272.176 511.956 272.176 509.591C272.176 507.227 270.258 505.311 267.891 505.311C265.525 505.311 263.606 507.227 263.606 509.591C263.606 511.956 265.525 513.872 267.891 513.872Z" fill="#BDBDBD"/>
<path d="M282.89 392.398C283.778 392.398 284.497 391.68 284.497 390.793C284.497 389.907 283.778 389.188 282.89 389.188C282.003 389.188 281.283 389.907 281.283 390.793C281.283 391.68 282.003 392.398 282.89 392.398Z" fill="#BDBDBD"/>
<path d="M282.89 408.053C284.074 408.053 285.033 407.094 285.033 405.912C285.033 404.729 284.074 403.771 282.89 403.771C281.707 403.771 280.747 404.729 280.747 405.912C280.747 407.094 281.707 408.053 282.89 408.053Z" fill="#BDBDBD"/>
<path d="M282.89 423.704C284.296 423.704 285.435 422.566 285.435 421.162C285.435 419.758 284.296 418.62 282.89 418.62C281.485 418.62 280.345 419.758 280.345 421.162C280.345 422.566 281.485 423.704 282.89 423.704Z" fill="#BDBDBD"/>
<path d="M282.89 439.356C284.517 439.356 285.837 438.039 285.837 436.413C285.837 434.787 284.517 433.469 282.89 433.469C281.263 433.469 279.944 434.787 279.944 436.413C279.944 438.039 281.263 439.356 282.89 439.356Z" fill="#BDBDBD"/>
<path d="M282.89 455.142C284.813 455.142 286.372 453.584 286.372 451.663C286.372 449.743 284.813 448.185 282.89 448.185C280.967 448.185 279.409 449.743 279.409 451.663C279.409 453.584 280.967 455.142 282.89 455.142Z" fill="#BDBDBD"/>
<path d="M282.89 470.795C285.035 470.795 286.773 469.058 286.773 466.915C286.773 464.773 285.035 463.036 282.89 463.036C280.746 463.036 279.007 464.773 279.007 466.915C279.007 469.058 280.746 470.795 282.89 470.795Z" fill="#BDBDBD"/>
<path d="M282.889 486.446C285.255 486.446 287.174 484.53 287.174 482.166C287.174 479.802 285.255 477.885 282.889 477.885C280.523 477.885 278.604 479.802 278.604 482.166C278.604 484.53 280.523 486.446 282.889 486.446Z" fill="#BDBDBD"/>
<path d="M282.89 502.101C285.553 502.101 287.711 499.944 287.711 497.284C287.711 494.624 285.553 492.468 282.89 492.468C280.227 492.468 278.069 494.624 278.069 497.284C278.069 499.944 280.227 502.101 282.89 502.101Z" fill="#BDBDBD"/>
<path d="M282.89 517.753C285.775 517.753 288.113 515.416 288.113 512.535C288.113 509.653 285.775 507.317 282.89 507.317C280.006 507.317 277.667 509.653 277.667 512.535C277.667 515.416 280.006 517.753 282.89 517.753Z" fill="#BDBDBD"/>
<path d="M297.888 364.839C298.775 364.839 299.495 364.121 299.495 363.234C299.495 362.348 298.775 361.629 297.888 361.629C297.001 361.629 296.281 362.348 296.281 363.234C296.281 364.121 297.001 364.839 297.888 364.839Z" fill="#BDBDBD"/>
<path d="M297.889 380.627C299.073 380.627 300.032 379.669 300.032 378.486C300.032 377.304 299.073 376.345 297.889 376.345C296.705 376.345 295.746 377.304 295.746 378.486C295.746 379.669 296.705 380.627 297.889 380.627Z" fill="#BDBDBD"/>
<path d="M297.889 396.279C299.294 396.279 300.434 395.141 300.434 393.737C300.434 392.333 299.294 391.195 297.889 391.195C296.484 391.195 295.344 392.333 295.344 393.737C295.344 395.141 296.484 396.279 297.889 396.279Z" fill="#BDBDBD"/>
<path d="M297.889 411.932C299.516 411.932 300.835 410.614 300.835 408.988C300.835 407.363 299.516 406.045 297.889 406.045C296.262 406.045 294.943 407.363 294.943 408.988C294.943 410.614 296.262 411.932 297.889 411.932Z" fill="#BDBDBD"/>
<path d="M297.888 427.717C299.811 427.717 301.369 426.16 301.369 424.239C301.369 422.318 299.811 420.761 297.888 420.761C295.965 420.761 294.406 422.318 294.406 424.239C294.406 426.16 295.965 427.717 297.888 427.717Z" fill="#BDBDBD"/>
<path d="M297.888 443.236C300.032 443.236 301.771 441.499 301.771 439.356C301.771 437.214 300.032 435.477 297.888 435.477C295.743 435.477 294.005 437.214 294.005 439.356C294.005 441.499 295.743 443.236 297.888 443.236Z" fill="#BDBDBD"/>
<path d="M297.888 458.888C300.254 458.888 302.173 456.971 302.173 454.607C302.173 452.243 300.254 450.326 297.888 450.326C295.521 450.326 293.603 452.243 293.603 454.607C293.603 456.971 295.521 458.888 297.888 458.888Z" fill="#BDBDBD"/>
<path d="M297.889 474.675C300.552 474.675 302.71 472.519 302.71 469.859C302.71 467.199 300.552 465.042 297.889 465.042C295.226 465.042 293.068 467.199 293.068 469.859C293.068 472.519 295.226 474.675 297.889 474.675Z" fill="#BDBDBD"/>
<path d="M297.889 490.327C300.774 490.327 303.112 487.991 303.112 485.109C303.112 482.228 300.774 479.892 297.889 479.892C295.004 479.892 292.666 482.228 292.666 485.109C292.666 487.991 295.004 490.327 297.889 490.327Z" fill="#BDBDBD"/>
<path d="M297.889 505.98C300.995 505.98 303.514 503.464 303.514 500.361C303.514 497.258 300.995 494.742 297.889 494.742C294.783 494.742 292.264 497.258 292.264 500.361C292.264 503.464 294.783 505.98 297.889 505.98Z" fill="#BDBDBD"/>
<path d="M297.888 521.765C301.29 521.765 304.048 519.01 304.048 515.612C304.048 512.213 301.29 509.458 297.888 509.458C294.486 509.458 291.728 512.213 291.728 515.612C291.728 519.01 294.486 521.765 297.888 521.765Z" fill="#BDBDBD"/>
<path d="M312.753 337.414C313.641 337.414 314.36 336.695 314.36 335.809C314.36 334.922 313.641 334.204 312.753 334.204C311.866 334.204 311.147 334.922 311.147 335.809C311.147 336.695 311.866 337.414 312.753 337.414Z" fill="#BDBDBD"/>
<path d="M312.753 353.202C313.937 353.202 314.896 352.243 314.896 351.061C314.896 349.878 313.937 348.92 312.753 348.92C311.57 348.92 310.61 349.878 310.61 351.061C310.61 352.243 311.57 353.202 312.753 353.202Z" fill="#BDBDBD"/>
<path d="M312.753 368.855C314.159 368.855 315.298 367.716 315.298 366.312C315.298 364.908 314.159 363.77 312.753 363.77C311.348 363.77 310.208 364.908 310.208 366.312C310.208 367.716 311.348 368.855 312.753 368.855Z" fill="#BDBDBD"/>
<path d="M312.753 384.372C314.38 384.372 315.7 383.054 315.7 381.428C315.7 379.803 314.38 378.485 312.753 378.485C311.126 378.485 309.807 379.803 309.807 381.428C309.807 383.054 311.126 384.372 312.753 384.372Z" fill="#BDBDBD"/>
<path d="M312.753 400.158C314.676 400.158 316.235 398.601 316.235 396.68C316.235 394.759 314.676 393.202 312.753 393.202C310.83 393.202 309.272 394.759 309.272 396.68C309.272 398.601 310.83 400.158 312.753 400.158Z" fill="#BDBDBD"/>
<path d="M312.753 415.81C314.898 415.81 316.636 414.073 316.636 411.931C316.636 409.788 314.898 408.051 312.753 408.051C310.609 408.051 308.87 409.788 308.87 411.931C308.87 414.073 310.609 415.81 312.753 415.81Z" fill="#BDBDBD"/>
<path d="M312.753 431.462C315.12 431.462 317.038 429.545 317.038 427.181C317.038 424.817 315.12 422.901 312.753 422.901C310.387 422.901 308.468 424.817 308.468 427.181C308.468 429.545 310.387 431.462 312.753 431.462Z" fill="#BDBDBD"/>
<path d="M312.753 447.249C315.416 447.249 317.574 445.093 317.574 442.433C317.574 439.773 315.416 437.617 312.753 437.617C310.09 437.617 307.932 439.773 307.932 442.433C307.932 445.093 310.09 447.249 312.753 447.249Z" fill="#BDBDBD"/>
<path d="M312.753 462.902C315.638 462.902 317.976 460.566 317.976 457.685C317.976 454.803 315.638 452.467 312.753 452.467C309.869 452.467 307.53 454.803 307.53 457.685C307.53 460.566 309.869 462.902 312.753 462.902Z" fill="#BDBDBD"/>
<path d="M312.753 478.421C315.859 478.421 318.378 475.905 318.378 472.802C318.378 469.699 315.859 467.183 312.753 467.183C309.647 467.183 307.129 469.699 307.129 472.802C307.129 475.905 309.647 478.421 312.753 478.421Z" fill="#BDBDBD"/>
<path d="M312.753 494.206C316.155 494.206 318.913 491.451 318.913 488.053C318.913 484.654 316.155 481.899 312.753 481.899C309.351 481.899 306.593 484.654 306.593 488.053C306.593 491.451 309.351 494.206 312.753 494.206Z" fill="#BDBDBD"/>
<path d="M312.753 509.858C316.377 509.858 319.315 506.923 319.315 503.303C319.315 499.683 316.377 496.748 312.753 496.748C309.129 496.748 306.192 499.683 306.192 503.303C306.192 506.923 309.129 509.858 312.753 509.858Z" fill="#BDBDBD"/>
<path d="M327.751 309.855C328.638 309.855 329.357 309.136 329.357 308.25C329.357 307.363 328.638 306.645 327.751 306.645C326.863 306.645 326.144 307.363 326.144 308.25C326.144 309.136 326.863 309.855 327.751 309.855Z" fill="#BDBDBD"/>
<path d="M327.752 325.643C328.936 325.643 329.895 324.684 329.895 323.502C329.895 322.319 328.936 321.361 327.752 321.361C326.568 321.361 325.609 322.319 325.609 323.502C325.609 324.684 326.568 325.643 327.752 325.643Z" fill="#BDBDBD"/>
<path d="M327.752 341.294C329.157 341.294 330.297 340.156 330.297 338.752C330.297 337.348 329.157 336.21 327.752 336.21C326.347 336.21 325.207 337.348 325.207 338.752C325.207 340.156 326.347 341.294 327.752 341.294Z" fill="#BDBDBD"/>
<path d="M327.752 356.947C329.379 356.947 330.698 355.63 330.698 354.004C330.698 352.378 329.379 351.061 327.752 351.061C326.125 351.061 324.806 352.378 324.806 354.004C324.806 355.63 326.125 356.947 327.752 356.947Z" fill="#BDBDBD"/>
<path d="M327.751 372.733C329.674 372.733 331.232 371.176 331.232 369.255C331.232 367.334 329.674 365.777 327.751 365.777C325.828 365.777 324.269 367.334 324.269 369.255C324.269 371.176 325.828 372.733 327.751 372.733Z" fill="#BDBDBD"/>
<path d="M327.751 388.384C329.895 388.384 331.634 386.648 331.634 384.505C331.634 382.363 329.895 380.626 327.751 380.626C325.606 380.626 323.868 382.363 323.868 384.505C323.868 386.648 325.606 388.384 327.751 388.384Z" fill="#BDBDBD"/>
<path d="M327.751 403.903C330.117 403.903 332.036 401.987 332.036 399.622C332.036 397.258 330.117 395.342 327.751 395.342C325.384 395.342 323.466 397.258 323.466 399.622C323.466 401.987 325.384 403.903 327.751 403.903Z" fill="#BDBDBD"/>
<path d="M327.752 419.691C330.415 419.691 332.573 417.534 332.573 414.874C332.573 412.214 330.415 410.058 327.752 410.058C325.089 410.058 322.931 412.214 322.931 414.874C322.931 417.534 325.089 419.691 327.752 419.691Z" fill="#BDBDBD"/>
<path d="M327.752 435.344C330.636 435.344 332.975 433.008 332.975 430.126C332.975 427.244 330.636 424.908 327.752 424.908C324.867 424.908 322.529 427.244 322.529 430.126C322.529 433.008 324.867 435.344 327.752 435.344Z" fill="#BDBDBD"/>
<path d="M327.752 450.995C330.858 450.995 333.376 448.48 333.376 445.377C333.376 442.273 330.858 439.758 327.752 439.758C324.646 439.758 322.127 442.273 322.127 445.377C322.127 448.48 324.646 450.995 327.752 450.995Z" fill="#BDBDBD"/>
<path d="M327.751 466.781C331.153 466.781 333.911 464.026 333.911 460.627C333.911 457.229 331.153 454.473 327.751 454.473C324.349 454.473 321.591 457.229 321.591 460.627C321.591 464.026 324.349 466.781 327.751 466.781Z" fill="#BDBDBD"/>
<path d="M327.751 482.433C331.375 482.433 334.312 479.498 334.312 475.878C334.312 472.258 331.375 469.323 327.751 469.323C324.127 469.323 321.189 472.258 321.189 475.878C321.189 479.498 324.127 482.433 327.751 482.433Z" fill="#BDBDBD"/>
<path d="M327.751 497.951C331.596 497.951 334.714 494.837 334.714 490.995C334.714 487.153 331.596 484.039 327.751 484.039C323.905 484.039 320.788 487.153 320.788 490.995C320.788 494.837 323.905 497.951 327.751 497.951Z" fill="#BDBDBD"/>
<path d="M327.752 513.739C331.894 513.739 335.251 510.384 335.251 506.247C335.251 502.109 331.894 498.755 327.752 498.755C323.61 498.755 320.253 502.109 320.253 506.247C320.253 510.384 323.61 513.739 327.752 513.739Z" fill="#BDBDBD"/>
<path d="M342.616 282.43C343.503 282.43 344.223 281.711 344.223 280.824C344.223 279.938 343.503 279.219 342.616 279.219C341.729 279.219 341.009 279.938 341.009 280.824C341.009 281.711 341.729 282.43 342.616 282.43Z" fill="#BDBDBD"/>
<path d="M342.616 298.217C343.8 298.217 344.759 297.259 344.759 296.076C344.759 294.894 343.8 293.935 342.616 293.935C341.433 293.935 340.473 294.894 340.473 296.076C340.473 297.259 341.433 298.217 342.616 298.217Z" fill="#BDBDBD"/>
<path d="M342.616 313.87C344.022 313.87 345.161 312.732 345.161 311.328C345.161 309.924 344.022 308.786 342.616 308.786C341.211 308.786 340.071 309.924 340.071 311.328C340.071 312.732 341.211 313.87 342.616 313.87Z" fill="#BDBDBD"/>
<path d="M342.616 329.522C344.243 329.522 345.562 328.204 345.562 326.579C345.562 324.953 344.243 323.635 342.616 323.635C340.989 323.635 339.67 324.953 339.67 326.579C339.67 328.204 340.989 329.522 342.616 329.522Z" fill="#BDBDBD"/>
<path d="M342.616 345.174C344.539 345.174 346.098 343.617 346.098 341.696C346.098 339.775 344.539 338.218 342.616 338.218C340.693 338.218 339.135 339.775 339.135 341.696C339.135 343.617 340.693 345.174 342.616 345.174Z" fill="#BDBDBD"/>
<path d="M342.616 360.826C344.761 360.826 346.499 359.089 346.499 356.946C346.499 354.804 344.761 353.067 342.616 353.067C340.472 353.067 338.733 354.804 338.733 356.946C338.733 359.089 340.472 360.826 342.616 360.826Z" fill="#BDBDBD"/>
<path d="M342.616 376.477C344.983 376.477 346.901 374.561 346.901 372.197C346.901 369.833 344.983 367.916 342.616 367.916C340.25 367.916 338.331 369.833 338.331 372.197C338.331 374.561 340.25 376.477 342.616 376.477Z" fill="#BDBDBD"/>
<path d="M342.616 392.266C345.279 392.266 347.437 390.11 347.437 387.45C347.437 384.79 345.279 382.633 342.616 382.633C339.953 382.633 337.795 384.79 337.795 387.45C337.795 390.11 339.953 392.266 342.616 392.266Z" fill="#BDBDBD"/>
<path d="M342.616 407.918C345.501 407.918 347.839 405.582 347.839 402.7C347.839 399.819 345.501 397.483 342.616 397.483C339.732 397.483 337.393 399.819 337.393 402.7C337.393 405.582 339.732 407.918 342.616 407.918Z" fill="#BDBDBD"/>
<path d="M342.616 423.57C345.723 423.57 348.241 421.054 348.241 417.951C348.241 414.848 345.723 412.332 342.616 412.332C339.51 412.332 336.992 414.848 336.992 417.951C336.992 421.054 339.51 423.57 342.616 423.57Z" fill="#BDBDBD"/>
<path d="M342.616 439.222C346.018 439.222 348.776 436.467 348.776 433.068C348.776 429.67 346.018 426.915 342.616 426.915C339.214 426.915 336.456 429.67 336.456 433.068C336.456 436.467 339.214 439.222 342.616 439.222Z" fill="#BDBDBD"/>
<path d="M342.616 454.874C346.24 454.874 349.178 451.939 349.178 448.319C349.178 444.699 346.24 441.764 342.616 441.764C338.992 441.764 336.055 444.699 336.055 448.319C336.055 451.939 338.992 454.874 342.616 454.874Z" fill="#BDBDBD"/>
<path d="M342.616 470.527C346.462 470.527 349.579 467.412 349.579 463.571C349.579 459.729 346.462 456.614 342.616 456.614C338.771 456.614 335.653 459.729 335.653 463.571C335.653 467.412 338.771 470.527 342.616 470.527Z" fill="#BDBDBD"/>
<path d="M342.616 486.314C346.758 486.314 350.116 482.96 350.116 478.822C350.116 474.685 346.758 471.33 342.616 471.33C338.474 471.33 335.117 474.685 335.117 478.822C335.117 482.96 338.474 486.314 342.616 486.314Z" fill="#BDBDBD"/>
<path d="M357.614 255.005C358.501 255.005 359.22 254.286 359.22 253.4C359.22 252.514 358.501 251.795 357.614 251.795C356.726 251.795 356.007 252.514 356.007 253.4C356.007 254.286 356.726 255.005 357.614 255.005Z" fill="#BDBDBD"/>
<path d="M357.615 270.793C358.799 270.793 359.758 269.834 359.758 268.652C359.758 267.469 358.799 266.511 357.615 266.511C356.431 266.511 355.472 267.469 355.472 268.652C355.472 269.834 356.431 270.793 357.615 270.793Z" fill="#BDBDBD"/>
<path d="M357.615 286.311C359.02 286.311 360.16 285.173 360.16 283.769C360.16 282.365 359.02 281.227 357.615 281.227C356.21 281.227 355.07 282.365 355.07 283.769C355.07 285.173 356.21 286.311 357.615 286.311Z" fill="#BDBDBD"/>
<path d="M357.615 301.963C359.242 301.963 360.561 300.645 360.561 299.02C360.561 297.394 359.242 296.076 357.615 296.076C355.988 296.076 354.669 297.394 354.669 299.02C354.669 300.645 355.988 301.963 357.615 301.963Z" fill="#BDBDBD"/>
<path d="M357.615 317.748C359.538 317.748 361.097 316.191 361.097 314.27C361.097 312.349 359.538 310.792 357.615 310.792C355.692 310.792 354.133 312.349 354.133 314.27C354.133 316.191 355.692 317.748 357.615 317.748Z" fill="#BDBDBD"/>
<path d="M357.614 333.4C359.758 333.4 361.497 331.663 361.497 329.521C361.497 327.378 359.758 325.641 357.614 325.641C355.469 325.641 353.731 327.378 353.731 329.521C353.731 331.663 355.469 333.4 357.614 333.4Z" fill="#BDBDBD"/>
<path d="M357.614 349.053C359.98 349.053 361.899 347.137 361.899 344.773C361.899 342.408 359.98 340.492 357.614 340.492C355.247 340.492 353.329 342.408 353.329 344.773C353.329 347.137 355.247 349.053 357.614 349.053Z" fill="#BDBDBD"/>
<path d="M357.615 364.841C360.278 364.841 362.436 362.684 362.436 360.024C362.436 357.364 360.278 355.208 357.615 355.208C354.952 355.208 352.794 357.364 352.794 360.024C352.794 362.684 354.952 364.841 357.615 364.841Z" fill="#BDBDBD"/>
<path d="M357.615 380.359C360.5 380.359 362.838 378.023 362.838 375.141C362.838 372.26 360.5 369.924 357.615 369.924C354.73 369.924 352.392 372.26 352.392 375.141C352.392 378.023 354.73 380.359 357.615 380.359Z" fill="#BDBDBD"/>
<path d="M357.615 396.011C360.721 396.011 363.24 393.495 363.24 390.392C363.24 387.289 360.721 384.773 357.615 384.773C354.509 384.773 351.99 387.289 351.99 390.392C351.99 393.495 354.509 396.011 357.615 396.011Z" fill="#BDBDBD"/>
<path d="M357.614 411.796C361.016 411.796 363.774 409.041 363.774 405.643C363.774 402.244 361.016 399.489 357.614 399.489C354.212 399.489 351.454 402.244 351.454 405.643C351.454 409.041 354.212 411.796 357.614 411.796Z" fill="#BDBDBD"/>
<path d="M357.614 427.449C361.238 427.449 364.175 424.514 364.175 420.894C364.175 417.274 361.238 414.339 357.614 414.339C353.99 414.339 351.052 417.274 351.052 420.894C351.052 424.514 353.99 427.449 357.614 427.449Z" fill="#BDBDBD"/>
<path d="M357.614 443.101C361.459 443.101 364.577 439.987 364.577 436.145C364.577 432.303 361.459 429.189 357.614 429.189C353.768 429.189 350.651 432.303 350.651 436.145C350.651 439.987 353.768 443.101 357.614 443.101Z" fill="#BDBDBD"/>
<path d="M357.615 458.889C361.757 458.889 365.114 455.534 365.114 451.397C365.114 447.259 361.757 443.905 357.615 443.905C353.473 443.905 350.116 447.259 350.116 451.397C350.116 455.534 353.473 458.889 357.615 458.889Z" fill="#BDBDBD"/>
<path d="M369.934 299.02C370.069 301.695 370.069 304.371 370.069 307.046C370.068 343.942 360.602 380.222 342.575 412.425C324.548 444.627 298.561 471.677 267.094 490.993C271.503 498.026 276.471 504.693 281.952 510.93V510.93C310.629 494.425 334.444 470.659 350.996 442.028C367.548 413.397 376.251 380.912 376.229 347.849C376.342 331.364 374.224 314.939 369.934 299.02V299.02Z" fill="#BDBDBD"/>
</g>
</svg>
