<svg width="475" height="523" viewBox="0 0 475 523" fill="none" xmlns="http://www.w3.org/2000/svg">
<path d="M32.4401 278.851L33.5601 200.371L229.422 48.9861L238.354 40.879L443.695 201.964L442.12 305.703L443.695 319.052L236.429 481.501L33.7651 319.057L28.4651 292.078" fill="white"/>
<path d="M446.437 182.204L249.278 26.257C243.486 21.676 233.884 21.677 228.094 26.257L29.794 182.966C24.003 187.548 18.769 197.338 18.769 204.723V318.139C18.769 325.525 23.503 335.314 29.296 339.895L226.453 495.843C232.244 500.424 241.847 500.423 247.637 495.843L445.937 339.135C451.729 334.553 456.962 324.762 456.962 317.378V203.96C456.963 196.574 452.23 186.785 446.437 182.204Z" fill="white"/>
<path d="M464.453 173.532L249.273 3.432C243.473 -1.145 234.064 -1.143 228.273 3.432L11.8 174.303C6.00699 178.882 1 188.67 1 196.056V326.812C1 334.197 5.47901 343.984 11.273 348.562L226.453 518.662C232.253 523.24 241.661 523.238 247.453 518.662L463.925 347.796C469.718 343.217 474.725 333.429 474.725 326.043V195.288C474.728 187.903 470.253 178.116 464.453 173.532ZM456.961 255.346V317.371C456.961 324.755 451.728 334.546 445.936 339.128L247.636 495.832C241.846 500.414 232.243 500.415 226.452 495.832L29.291 339.892C23.498 335.311 18.764 325.522 18.764 318.136V204.724C18.764 197.339 23.998 187.549 29.789 182.967L228.089 26.258C233.879 21.677 243.481 21.676 249.273 26.258L446.432 182.205C452.225 186.786 456.958 196.575 456.958 203.961V255.352L456.961 255.346Z" fill="#057462"/>
<path d="M447.253 216.113C447.262 207.513 442.52 197.291 436.271 192.344L250.912 45.344C247.46 42.7494 243.26 41.3449 238.942 41.3411C234.623 41.3373 230.421 42.7345 226.964 45.323L40.0762 192.696C33.5682 197.835 28.5222 208.489 28.5142 216.445L28.4712 257.745V278.662H28.4762V306.203C28.4762 314.803 33.2282 325.019 39.4822 329.96L224.99 476.77C228.444 479.361 232.646 480.762 236.964 480.762C241.282 480.762 245.483 479.361 248.937 476.77L435.677 329.204C442.177 324.059 447.215 313.404 447.215 305.444V270.344H447.26V258.885H447.216L447.253 216.113ZM442.12 263.779V305.44C442.12 311.753 437.72 320.94 432.465 325.098L245.894 472.667C243.283 474.529 240.155 475.53 236.948 475.53C233.74 475.53 230.613 474.529 228.001 472.667L42.6702 325.86C37.7702 321.987 33.5622 312.985 33.5622 306.204V257.746L33.6042 216.446C33.6112 210.132 38.0172 200.946 43.2802 196.797L230.009 49.4191C232.622 47.5591 235.751 46.5609 238.958 46.564C242.165 46.567 245.292 47.5711 247.901 49.436L433.084 196.436C437.978 200.315 442.178 209.321 442.171 216.102L442.127 258.875L442.12 263.779ZM446.483 258.428L446.526 216.112L446.483 258.428Z" fill="#372F87"/>
<path d="M208.131 78H210.52V83.2111L211.542 82.4661L214.849 78H216.509L213.098 82.4L217.305 89.2561H214.275L211.263 84.2001L210.518 84.7191V89.2561H208.129L208.131 78Z" fill="#1A1718"/>
<path d="M223.266 78H226.709C229.202 78 230.761 79.2291 230.761 81.8091C230.786 82.3379 230.7 82.8662 230.507 83.3593C230.314 83.8523 230.019 84.2991 229.641 84.6702C229.264 85.0412 228.812 85.3282 228.315 85.5125C227.819 85.6967 227.289 85.7739 226.761 85.739H225.653V89.254H223.264L223.266 78ZM225.655 79.125V84.6311H226.486C227.56 84.6311 228.186 84.0601 228.186 81.9121C228.186 79.7831 227.58 79.125 226.486 79.125H225.655Z" fill="#1A1718"/>
<path d="M243.179 84.614H239.3V89.254H236.909V78H243.748V79.2461H239.298V83.4021H243.177L243.179 84.614Z" fill="#1A1718"/>
<path d="M256.046 84.614H252.167V89.254H249.778V78H256.617V79.2461H252.167V83.4021H256.046V84.614Z" fill="#1A1718"/>
<path d="M269.397 89.254H262.644V78H265.034V88.0071H269.397V89.254Z" fill="#1A1718"/>
<path d="M231.024 453.745C231.024 454.024 230.985 454.281 230.908 454.515C230.83 454.749 230.731 454.97 230.608 455.178C230.486 455.386 230.347 455.591 230.193 455.792C230.038 455.987 229.88 456.185 229.719 456.387L228.811 457.537H231.014V458.883H226.095L228.965 455.266C229.049 455.162 229.136 455.051 229.226 454.934C229.323 454.811 229.41 454.687 229.487 454.564C229.564 454.434 229.629 454.301 229.68 454.164C229.732 454.028 229.758 453.888 229.758 453.745C229.758 453.608 229.729 453.482 229.671 453.365C229.619 453.241 229.545 453.137 229.448 453.053C229.358 452.962 229.252 452.89 229.13 452.838C229.007 452.786 228.878 452.76 228.743 452.76C228.55 452.76 228.382 452.802 228.24 452.887C228.105 452.971 227.989 453.082 227.893 453.218C227.802 453.355 227.731 453.508 227.68 453.677C227.635 453.846 227.606 454.015 227.593 454.184H226.317C226.343 453.839 226.411 453.501 226.52 453.17C226.636 452.838 226.791 452.542 226.984 452.282C227.184 452.022 227.425 451.814 227.709 451.658C227.999 451.496 228.337 451.415 228.724 451.415C229.046 451.415 229.345 451.476 229.622 451.6C229.906 451.723 230.151 451.889 230.357 452.097C230.563 452.305 230.724 452.552 230.84 452.838C230.962 453.124 231.024 453.426 231.024 453.745ZM234.366 459C233.909 459 233.516 458.876 233.187 458.629C232.865 458.376 232.601 458.061 232.394 457.684C232.188 457.307 232.037 456.897 231.94 456.455C231.844 456.013 231.795 455.597 231.795 455.207C231.795 454.986 231.811 454.739 231.844 454.466C231.882 454.187 231.943 453.907 232.027 453.628C232.111 453.348 232.217 453.075 232.346 452.809C232.481 452.542 232.643 452.305 232.829 452.097C233.023 451.889 233.245 451.723 233.496 451.6C233.754 451.476 234.044 451.415 234.366 451.415C234.688 451.415 234.975 451.476 235.226 451.6C235.484 451.723 235.706 451.889 235.893 452.097C236.086 452.305 236.247 452.542 236.376 452.809C236.511 453.075 236.621 453.348 236.705 453.628C236.788 453.907 236.846 454.187 236.879 454.466C236.917 454.739 236.937 454.986 236.937 455.207C236.937 455.597 236.888 456.013 236.792 456.455C236.695 456.897 236.544 457.307 236.337 457.684C236.131 458.061 235.864 458.376 235.535 458.629C235.213 458.876 234.823 459 234.366 459ZM234.366 452.838C234.115 452.838 233.909 452.923 233.747 453.092C233.593 453.254 233.47 453.459 233.38 453.706C233.296 453.946 233.238 454.203 233.206 454.476C233.18 454.743 233.168 454.983 233.168 455.198C233.168 455.432 233.18 455.688 233.206 455.968C233.238 456.241 233.296 456.497 233.38 456.738C233.47 456.972 233.593 457.17 233.747 457.333C233.909 457.495 234.115 457.576 234.366 457.576C234.617 457.576 234.82 457.495 234.975 457.333C235.129 457.17 235.249 456.972 235.332 456.738C235.423 456.497 235.484 456.241 235.516 455.968C235.548 455.695 235.564 455.448 235.564 455.227C235.564 455.012 235.548 454.769 235.516 454.496C235.49 454.216 235.435 453.956 235.352 453.716C235.268 453.469 235.146 453.261 234.984 453.092C234.83 452.923 234.624 452.838 234.366 452.838ZM239.394 458.883H238.041V452.916H237.423V451.571H239.394V458.883ZM245.04 456.592C245.04 456.923 244.979 457.235 244.856 457.528C244.74 457.814 244.579 458.067 244.373 458.288C244.167 458.509 243.925 458.685 243.648 458.815C243.378 458.938 243.088 459 242.778 459C242.508 459 242.24 458.964 241.976 458.893C241.712 458.821 241.471 458.698 241.251 458.522C241.039 458.347 240.859 458.113 240.71 457.82C240.569 457.521 240.485 457.147 240.459 456.699H241.706C241.757 456.913 241.818 457.086 241.889 457.216C241.967 457.339 242.05 457.433 242.141 457.498C242.231 457.563 242.331 457.606 242.44 457.625C242.55 457.645 242.662 457.654 242.778 457.654C242.914 457.654 243.043 457.628 243.165 457.576C243.287 457.518 243.394 457.44 243.484 457.342C243.581 457.245 243.655 457.134 243.706 457.011C243.758 456.881 243.783 456.741 243.783 456.592C243.783 456.293 243.687 456.049 243.494 455.86C243.3 455.666 243.062 455.568 242.778 455.568H241.967V454.213H242.778C243.023 454.213 243.2 454.138 243.31 453.989C243.426 453.839 243.484 453.673 243.484 453.491C243.484 453.303 243.419 453.134 243.291 452.984C243.162 452.835 242.991 452.76 242.778 452.76C242.688 452.76 242.601 452.767 242.517 452.78C242.44 452.793 242.366 452.828 242.295 452.887C242.231 452.945 242.17 453.033 242.112 453.15C242.054 453.261 242.005 453.417 241.967 453.618H240.71C240.73 453.235 240.804 452.903 240.933 452.624C241.061 452.344 241.222 452.117 241.416 451.941C241.609 451.759 241.825 451.626 242.063 451.541C242.302 451.457 242.54 451.415 242.778 451.415C243.036 451.415 243.284 451.47 243.522 451.58C243.761 451.684 243.97 451.831 244.151 452.019C244.331 452.208 244.473 452.429 244.576 452.682C244.685 452.929 244.74 453.199 244.74 453.491C244.74 453.764 244.695 454.011 244.605 454.232C244.521 454.453 244.405 454.652 244.257 454.827C244.779 455.321 245.04 455.909 245.04 456.592Z" fill="#1A1818"/>
<path d="M206.616 433.989C205.916 433.532 205.111 433.268 204.279 433.221C204.087 433.201 203.893 433.224 203.711 433.287C203.529 433.351 203.363 433.454 203.225 433.589C203.086 433.724 202.978 433.887 202.909 434.069C202.84 434.25 202.81 434.444 202.823 434.638C202.823 437.085 207.378 436.526 207.378 440.299C207.378 442.483 205.594 443.723 203.412 443.723C200.832 443.723 200 442.343 200 442.343L200.658 441.33C200.99 441.688 201.393 441.97 201.841 442.16C202.288 442.349 202.771 442.442 203.256 442.431C203.476 442.459 203.699 442.439 203.91 442.371C204.122 442.303 204.316 442.189 204.479 442.038C204.642 441.886 204.771 441.701 204.856 441.494C204.94 441.288 204.979 441.065 204.97 440.841C204.97 438.64 200.468 439.006 200.468 435.391C200.468 433.295 201.991 432.002 204.122 432.002C205.099 432.019 206.055 432.297 206.892 432.806L206.616 433.989Z" fill="#1A1818"/>
<path d="M219.818 443.732H217.438V432.205H219.818V443.732Z" fill="#1A1818"/>
<path d="M239.814 443.732H237.746L232.396 435.086H232.361L232.669 436.016V443.732H230.762V432.205H233.247L237.99 439.89H238.025L237.903 439.105V432.205H239.81L239.814 443.732Z" fill="#1A1818"/>
<path d="M255.31 433.308C253.421 433.308 252.521 434.461 252.521 437.851C252.521 441.24 253.509 442.407 255.432 442.407C256.003 442.381 256.56 442.221 257.059 441.94C257.558 441.659 257.986 441.264 258.307 440.787L259.069 441.625C258.653 442.3 258.066 442.85 257.369 443.218C256.672 443.587 255.89 443.761 255.103 443.722C251.641 443.722 249.891 441.451 249.891 437.94C249.891 434.358 251.779 432 255.017 432C256.221 432.046 257.401 432.35 258.48 432.891L258.238 434.167C257.326 433.693 256.332 433.401 255.31 433.308Z" fill="#1A1818"/>
<path d="M275.995 443.732H268.859V432.205H275.524V433.645H271.24V437.007H275.049V438.448H271.24V442.296H276L275.995 443.732Z" fill="#1A1818"/>
<path d="M61.7722 426.949L60.5306 425.709C59.0697 424.248 58.249 422.266 58.249 420.201C58.249 418.135 59.0697 416.153 60.5306 414.692L345.142 130.165C348.334 126.967 352.157 124.467 356.366 122.824C360.576 121.181 365.081 120.43 369.596 120.619C372.558 120.743 375.206 120.917 376.789 121.028C377.748 121.095 378.316 121.144 378.316 121.144C378.316 121.144 436.156 127.012 456.743 130.715C459.03 131.124 460.858 131.51 462.096 131.855C474.479 135.321 474.479 144.732 473.736 151.908C471.507 160.822 466.618 164.851 462.282 166.643C458.847 168.025 455.057 168.259 451.478 167.311C450.453 167.051 449.112 166.712 447.403 166.283C441.424 164.785 430.966 162.197 414.042 158.1C394.017 154.549 379.148 153.531 368.189 153.784C344.904 154.312 339.243 160.577 339.243 160.577L72.7921 426.949C71.3307 428.41 69.3487 429.23 67.2821 429.23C65.2156 429.23 63.2336 428.41 61.7722 426.949Z" fill="#F0F6F0" stroke="#3D3D3D" stroke-width="0.837" stroke-miterlimit="10"/>
<path d="M447.403 166.283L456.743 130.715C459.031 131.124 460.858 131.51 462.096 131.855C474.479 135.321 474.479 144.732 473.736 151.908C471.507 160.823 466.618 164.851 462.282 166.643C458.847 168.025 455.057 168.259 451.478 167.311C450.453 167.051 449.112 166.712 447.403 166.283Z" fill="#A5803A"/>
<path d="M61.7722 426.949L60.5306 425.709C59.0697 424.248 58.249 422.266 58.249 420.201C58.249 418.135 59.0697 416.153 60.5306 414.692L345.142 130.165C348.334 126.967 352.157 124.467 356.366 122.824C360.576 121.181 365.081 120.43 369.596 120.619C372.558 120.743 375.206 120.917 376.789 121.028L368.191 153.784C344.906 154.312 339.244 160.577 339.244 160.577L72.7921 426.949C71.3307 428.41 69.3487 429.23 67.2821 429.23C65.2156 429.23 63.2336 428.41 61.7722 426.949Z" fill="#A5803A"/>
<path d="M434.377 162.89L447.009 129.16L441.493 164.754L434.377 162.89Z" fill="#4F4F4F"/>
<path d="M423.128 160.25L435.43 127.594L430.247 162.102L423.128 160.25Z" fill="#4F4F4F"/>
<path d="M411.888 157.521L423.819 126.149L419.008 159.366L411.888 157.521Z" fill="#4F4F4F"/>
<path d="M400.527 155.581L411.907 124.759L407.669 157.34L400.527 155.581Z" fill="#4F4F4F"/>
<path d="M387.982 153.961L399.698 123.413L395.103 155.805L387.982 153.961Z" fill="#4F4F4F"/>
<path d="M375.71 153.013L387.526 122.098L382.831 154.858L375.71 153.013Z" fill="#4F4F4F"/>
<path d="M317.1 163.327L307.123 173.732C303.934 177.03 300.062 181.032 295.625 185.625C291.189 190.218 286.179 195.404 280.663 201.006C275.146 206.609 269.198 212.705 262.894 219.14L243.025 239.342L221.691 260.861L199.601 283.017L177.438 305.097L155.915 326.424C141.95 340.253 128.787 353.033 117.569 364.051C111.965 369.566 106.781 374.573 102.183 379.008L90.2853 390.502L79.875 400.475L89.8515 390.068L101.349 378.174C105.785 373.578 110.795 368.396 116.311 362.793C127.333 351.579 140.116 338.419 153.948 324.457L175.283 302.941L197.368 280.786L219.532 258.708L241.056 237.38C248.064 230.492 254.84 223.833 261.264 217.517L279.406 199.754C285.009 194.239 290.196 189.234 294.792 184.796L306.687 173.297L317.1 163.327Z" fill="#F0F6F0"/>
<path d="M413.228 426.949L414.469 425.709C415.93 424.248 416.751 422.267 416.751 420.201C416.751 418.135 415.93 416.153 414.469 414.692L129.858 130.165C126.666 126.967 122.843 124.467 118.634 122.824C114.424 121.181 109.919 120.43 105.404 120.619C102.442 120.743 99.7942 120.917 98.2116 121.028C97.2522 121.095 96.6841 121.144 96.6841 121.144C96.6841 121.144 38.8442 127.012 18.2573 130.715C15.9695 131.124 14.1415 131.51 12.9039 131.855C0.520631 135.321 0.520627 144.732 1.2636 151.908C3.49349 160.822 8.38223 164.851 12.7183 166.643C16.1531 168.025 19.9429 168.259 23.5219 167.311C24.548 167.051 25.889 166.712 27.5981 166.283C33.5757 164.786 44.0353 162.197 60.9576 158.1C80.9831 154.549 95.8522 153.531 106.811 153.784C130.096 154.312 135.757 160.577 135.757 160.577L402.204 426.949C402.928 427.673 403.787 428.247 404.733 428.639C405.678 429.031 406.692 429.232 407.716 429.232C408.74 429.232 409.753 429.031 410.699 428.639C411.645 428.247 412.504 427.673 413.228 426.949Z" fill="#F0F6F0" stroke="#3D3D3D" stroke-width="0.837" stroke-miterlimit="10"/>
<path d="M27.5981 166.283L18.2573 130.715C15.9695 131.124 14.1415 131.51 12.9039 131.855C0.520631 135.321 0.520627 144.732 1.2636 151.908C3.49349 160.823 8.38223 164.851 12.7183 166.643C16.1531 168.025 19.9429 168.259 23.5219 167.311C24.548 167.051 25.8861 166.712 27.5981 166.283Z" fill="#A5803A"/>
<path d="M413.228 426.949L414.469 425.709C415.931 424.248 416.751 422.267 416.751 420.201C416.751 418.135 415.931 416.153 414.469 414.692L129.858 130.165C126.666 126.967 122.844 124.467 118.634 122.824C114.424 121.181 109.919 120.43 105.404 120.619C102.442 120.743 99.7942 120.917 98.2117 121.028L106.81 153.784C130.095 154.312 135.756 160.577 135.756 160.577L402.204 426.949C402.928 427.673 403.787 428.247 404.733 428.639C405.679 429.031 406.692 429.232 407.716 429.232C408.74 429.232 409.753 429.031 410.699 428.639C411.645 428.247 412.504 427.673 413.228 426.949Z" fill="#A5803A"/>
<path d="M40.619 162.89L27.9866 129.16L33.5033 164.754L40.619 162.89Z" fill="#4F4F4F"/>
<path d="M51.8756 160.25L39.5735 127.594L44.7569 162.102L51.8756 160.25Z" fill="#4F4F4F"/>
<path d="M63.1122 157.521L51.1812 126.149L55.9916 159.366L63.1122 157.521Z" fill="#4F4F4F"/>
<path d="M74.4731 155.581L63.0928 124.759L67.3313 157.34L74.4731 155.581Z" fill="#4F4F4F"/>
<path d="M87.0188 153.961L75.3032 123.413L79.8982 155.805L87.0188 153.961Z" fill="#4F4F4F"/>
<path d="M99.29 153.013L87.4739 122.098L92.1694 154.858L99.29 153.013Z" fill="#4F4F4F"/>
<path d="M157.9 163.327L167.877 173.732L179.375 185.625C183.813 190.22 188.82 195.404 194.337 201.006L212.106 219.14C218.422 225.563 225.084 232.336 231.975 239.342L253.308 260.861L275.392 283.017L297.554 305.097L319.077 326.424C333.043 340.253 346.207 353.033 357.425 364.051C363.028 369.566 368.213 374.573 372.811 379.008L384.707 390.502L395.117 400.475L385.141 390.068C381.952 386.772 378.081 382.767 373.644 378.174C369.206 373.582 364.197 368.396 358.682 362.793C347.66 351.579 334.877 338.419 321.043 324.457L299.709 302.941L277.623 280.786C270.197 273.388 262.771 265.989 255.46 258.708L233.935 237.38L213.727 217.517L195.589 199.754C189.985 194.239 184.799 189.234 180.203 184.796L168.307 173.297L157.9 163.327Z" fill="#F0F6F0"/>
<path d="M236.7 413.334C234.018 413.344 231.381 412.646 229.056 411.312C202.707 396.083 180.83 374.193 165.621 347.838C150.411 321.484 142.405 291.593 142.405 261.167C142.405 230.741 150.411 200.851 165.621 174.496C180.83 148.142 202.707 126.251 229.056 111.023C231.385 109.697 234.019 109 236.7 109C239.38 109 242.015 109.697 244.344 111.023C270.692 126.251 292.569 148.142 307.779 174.496C322.988 200.851 330.995 230.741 330.995 261.167C330.995 291.593 322.988 321.484 307.779 347.838C292.569 374.193 270.692 396.083 244.344 411.312C242.018 412.646 239.381 413.344 236.7 413.334Z" fill="#1A1818" stroke="#482984" stroke-width="6" stroke-miterlimit="10"/>
<mask id="mask0" mask-type="alpha" maskUnits="userSpaceOnUse" x="139" y="106" width="195" height="311">
<path d="M236.7 413.334C234.018 413.344 231.381 412.646 229.056 411.312C202.707 396.083 180.83 374.193 165.621 347.838C150.411 321.484 142.405 291.593 142.405 261.167C142.405 230.741 150.411 200.851 165.621 174.496C180.83 148.142 202.707 126.251 229.056 111.023C231.385 109.697 234.019 109 236.7 109C239.38 109 242.015 109.697 244.344 111.023C270.692 126.251 292.569 148.142 307.779 174.496C322.988 200.851 330.995 230.741 330.995 261.167C330.995 291.593 322.988 321.484 307.779 347.838C292.569 374.193 270.692 396.083 244.344 411.312C242.018 412.646 239.381 413.344 236.7 413.334Z" fill="black" stroke="black" stroke-width="6" stroke-miterlimit="10"/>
</mask>
<g mask="url(#mask0)">
<path d="M197.915 346.803C189.147 320.956 184.538 291.286 184.538 261.167C184.538 231.049 189.147 201.38 197.915 175.531C201.995 163.264 207.306 151.441 213.766 140.242C196.156 155.093 182.003 173.609 172.294 194.496C162.584 215.383 157.554 238.137 157.554 261.169C157.554 284.201 162.584 306.956 172.294 327.842C182.003 348.729 196.156 367.245 213.766 382.096C207.33 370.884 202.021 359.062 197.915 346.803Z" fill="white"/>
<path d="M162.392 270.945C162.3 233.058 175.915 196.416 200.726 167.776C204.349 158.309 208.71 149.14 213.769 140.355C185.919 163.834 167.029 196.204 160.29 231.996C153.552 267.787 159.378 304.808 176.785 336.802C167.29 316.145 162.379 293.678 162.389 270.945H162.392Z" fill="#BDBDBD"/>
<path d="M236.7 124.171C210.057 153.616 193.644 205.537 193.644 261.167C193.644 316.798 210.057 368.718 236.7 398.163C260.761 384.283 280.742 364.316 294.634 340.267C308.527 316.219 315.841 288.938 315.841 261.167C315.841 233.396 308.527 206.115 294.634 182.067C280.742 158.018 260.761 138.05 236.7 124.171Z" fill="white"/>
<path d="M172.101 271.804C171.984 271.518 171.916 271.214 171.9 270.905L171.898 270.728C171.895 270.362 171.965 269.999 172.103 269.66C172.242 269.321 172.446 269.014 172.705 268.755C172.964 268.496 173.272 268.292 173.611 268.153C173.95 268.015 174.313 267.945 174.679 267.948L174.679 267.948H174.683L207.95 267.948L207.955 267.948C208.321 267.945 208.684 268.015 209.023 268.153C209.361 268.292 209.669 268.496 209.928 268.755C210.187 269.014 210.392 269.321 210.53 269.66C210.669 269.999 210.738 270.362 210.735 270.728L210.735 270.728L210.735 270.737C210.738 271.103 210.669 271.466 210.53 271.804C210.392 272.143 210.187 272.451 209.928 272.71C209.669 272.969 209.361 273.173 209.023 273.312C208.684 273.45 208.321 273.52 207.955 273.516H207.95H174.681V273.516L174.677 273.516C174.311 273.52 173.948 273.45 173.609 273.312C173.27 273.173 172.962 272.968 172.703 272.71C172.444 272.451 172.24 272.143 172.101 271.804Z" fill="#1A1818" stroke="#663795"/>
<path d="M172.101 250.911C171.984 250.624 171.916 250.32 171.9 250.011L171.898 249.834C171.895 249.468 171.965 249.105 172.103 248.766C172.242 248.428 172.446 248.12 172.705 247.861C172.964 247.602 173.272 247.398 173.611 247.259C173.949 247.121 174.313 247.051 174.679 247.055L174.679 247.055H174.683L207.95 247.055L207.955 247.055C208.321 247.051 208.684 247.121 209.023 247.259C209.361 247.398 209.669 247.602 209.928 247.861C210.187 248.12 210.392 248.428 210.53 248.766C210.669 249.105 210.738 249.468 210.735 249.834L210.735 249.834L210.735 249.843C210.738 250.209 210.668 250.572 210.53 250.91L210.993 251.1L210.53 250.91C210.391 251.249 210.187 251.557 209.928 251.816C209.669 252.074 209.361 252.279 209.022 252.418C208.683 252.556 208.32 252.626 207.954 252.623H207.95H174.681V252.623L174.677 252.623C174.311 252.626 173.948 252.556 173.609 252.418C173.27 252.279 172.962 252.075 172.703 251.816L172.35 252.17L172.703 251.816C172.444 251.557 172.24 251.249 172.101 250.911Z" fill="#1A1818" stroke="#663795"/>
<path d="M172.101 231.314C171.984 231.028 171.916 230.723 171.9 230.415L171.898 230.237C171.895 229.871 171.965 229.509 172.103 229.17C172.242 228.831 172.446 228.523 172.705 228.265C172.964 228.006 173.272 227.801 173.611 227.663C173.949 227.524 174.313 227.455 174.679 227.458L174.679 227.458H174.683L207.95 227.458L207.954 227.458C208.321 227.455 208.684 227.524 209.022 227.663C209.361 227.802 209.669 228.006 209.928 228.265C210.187 228.524 210.391 228.831 210.53 229.17L210.993 228.981L210.53 229.17C210.668 229.509 210.738 229.872 210.735 230.238L210.735 230.238L210.735 230.247C210.738 230.613 210.669 230.975 210.53 231.314C210.392 231.653 210.187 231.961 209.928 232.219C209.669 232.478 209.361 232.683 209.023 232.821C208.684 232.96 208.321 233.029 207.955 233.026H207.95H174.681V233.026L174.677 233.026C174.311 233.029 173.948 232.96 173.609 232.821C173.27 232.683 172.962 232.478 172.703 232.219C172.444 231.961 172.24 231.653 172.101 231.314Z" fill="#1A1818" stroke="#663795"/>
<path d="M172.101 291.992C171.984 291.705 171.916 291.401 171.9 291.093L171.898 290.915C171.895 290.549 171.965 290.186 172.103 289.848C172.242 289.509 172.446 289.201 172.705 288.943C172.964 288.684 173.272 288.479 173.611 288.341C173.95 288.202 174.313 288.133 174.679 288.136L174.679 288.136H174.683L207.95 288.136L207.955 288.136C208.321 288.133 208.684 288.202 209.023 288.341C209.361 288.479 209.669 288.684 209.928 288.943C210.187 289.201 210.392 289.509 210.53 289.848C210.669 290.187 210.738 290.549 210.735 290.915L210.735 290.915L210.735 290.924C210.738 291.29 210.668 291.653 210.53 291.992C210.391 292.331 210.187 292.638 209.928 292.897C209.669 293.156 209.361 293.361 209.022 293.499C208.684 293.638 208.321 293.707 207.954 293.704H207.95H174.681V293.704L174.677 293.704C174.311 293.707 173.948 293.638 173.609 293.499C173.27 293.361 172.962 293.156 172.703 292.897L172.35 293.251L172.703 292.897C172.444 292.639 172.24 292.331 172.101 291.992Z" fill="#1A1818" stroke="#663795"/>
</g>
<mask id="mask1" mask-type="alpha" maskUnits="userSpaceOnUse" x="193" y="124" width="123" height="275">
<path d="M236.7 124.171C210.057 153.616 193.644 205.537 193.644 261.167C193.644 316.798 210.057 368.718 236.7 398.163C260.761 384.283 280.742 364.316 294.634 340.267C308.527 316.219 315.841 288.938 315.841 261.167C315.841 233.396 308.527 206.115 294.634 182.067C280.742 158.018 260.761 138.05 236.7 124.171Z" fill="white"/>
</mask>
<g mask="url(#mask1)">
<path d="M224.783 321.742C225.528 321.742 226.132 321.138 226.132 320.394C226.132 319.649 225.528 319.045 224.783 319.045C224.038 319.045 223.435 319.649 223.435 320.394C223.435 321.138 224.038 321.742 224.783 321.742Z" fill="#BDBDBD"/>
<path d="M224.783 335.004C225.777 335.004 226.582 334.199 226.582 333.206C226.582 332.213 225.777 331.407 224.783 331.407C223.79 331.407 222.984 332.213 222.984 333.206C222.984 334.199 223.79 335.004 224.783 335.004Z" fill="#BDBDBD"/>
<path d="M224.783 348.153C225.963 348.153 226.919 347.197 226.919 346.017C226.919 344.838 225.963 343.882 224.783 343.882C223.603 343.882 222.647 344.838 222.647 346.017C222.647 347.197 223.603 348.153 224.783 348.153Z" fill="#BDBDBD"/>
<path d="M224.783 361.189C226.149 361.189 227.257 360.082 227.257 358.717C227.257 357.351 226.149 356.244 224.783 356.244C223.417 356.244 222.31 357.351 222.31 358.717C222.31 360.082 223.417 361.189 224.783 361.189Z" fill="#BDBDBD"/>
<path d="M224.783 374.449C226.397 374.449 227.706 373.141 227.706 371.528C227.706 369.914 226.397 368.606 224.783 368.606C223.169 368.606 221.861 369.914 221.861 371.528C221.861 373.141 223.169 374.449 224.783 374.449Z" fill="#BDBDBD"/>
<path d="M224.783 387.599C226.584 387.599 228.043 386.14 228.043 384.34C228.043 382.54 226.584 381.081 224.783 381.081C222.983 381.081 221.523 382.54 221.523 384.34C221.523 386.14 222.983 387.599 224.783 387.599Z" fill="#BDBDBD"/>
<path d="M224.783 400.747C226.77 400.747 228.38 399.137 228.38 397.151C228.38 395.165 226.77 393.555 224.783 393.555C222.797 393.555 221.186 395.165 221.186 397.151C221.186 399.137 222.797 400.747 224.783 400.747Z" fill="#BDBDBD"/>
<path d="M237.374 298.703C238.119 298.703 238.723 298.099 238.723 297.355C238.723 296.61 238.119 296.006 237.374 296.006C236.629 296.006 236.025 296.61 236.025 297.355C236.025 298.099 236.629 298.703 237.374 298.703Z" fill="#BDBDBD"/>
<path d="M237.374 311.853C238.368 311.853 239.173 311.048 239.173 310.055C239.173 309.062 238.368 308.256 237.374 308.256C236.381 308.256 235.575 309.062 235.575 310.055C235.575 311.048 236.381 311.853 237.374 311.853Z" fill="#BDBDBD"/>
<path d="M237.374 325.002C238.554 325.002 239.51 324.046 239.51 322.866C239.51 321.687 238.554 320.731 237.374 320.731C236.194 320.731 235.238 321.687 235.238 322.866C235.238 324.046 236.194 325.002 237.374 325.002Z" fill="#BDBDBD"/>
<path d="M237.374 338.15C238.74 338.15 239.848 337.043 239.848 335.677C239.848 334.312 238.74 333.205 237.374 333.205C236.008 333.205 234.901 334.312 234.901 335.677C234.901 337.043 236.008 338.15 237.374 338.15Z" fill="#BDBDBD"/>
<path d="M237.374 351.411C238.988 351.411 240.297 350.102 240.297 348.489C240.297 346.875 238.988 345.567 237.374 345.567C235.76 345.567 234.452 346.875 234.452 348.489C234.452 350.102 235.76 351.411 237.374 351.411Z" fill="#BDBDBD"/>
<path d="M237.374 364.56C239.175 364.56 240.634 363.101 240.634 361.301C240.634 359.501 239.175 358.042 237.374 358.042C235.574 358.042 234.115 359.501 234.115 361.301C234.115 363.101 235.574 364.56 237.374 364.56Z" fill="#BDBDBD"/>
<path d="M237.373 377.708C239.36 377.708 240.97 376.098 240.97 374.112C240.97 372.126 239.36 370.516 237.373 370.516C235.387 370.516 233.776 372.126 233.776 374.112C233.776 376.098 235.387 377.708 237.373 377.708Z" fill="#BDBDBD"/>
<path d="M237.374 390.859C239.609 390.859 241.421 389.047 241.421 386.813C241.421 384.578 239.609 382.767 237.374 382.767C235.139 382.767 233.327 384.578 233.327 386.813C233.327 389.047 235.139 390.859 237.374 390.859Z" fill="#BDBDBD"/>
<path d="M237.374 404.007C239.796 404.007 241.759 402.045 241.759 399.624C241.759 397.203 239.796 395.241 237.374 395.241C234.953 395.241 232.99 397.203 232.99 399.624C232.99 402.045 234.953 404.007 237.374 404.007Z" fill="#BDBDBD"/>
<path d="M249.964 275.552C250.709 275.552 251.313 274.948 251.313 274.204C251.313 273.459 250.709 272.855 249.964 272.855C249.219 272.855 248.615 273.459 248.615 274.204C248.615 274.948 249.219 275.552 249.964 275.552Z" fill="#BDBDBD"/>
<path d="M249.965 288.814C250.959 288.814 251.764 288.009 251.764 287.016C251.764 286.023 250.959 285.218 249.965 285.218C248.972 285.218 248.166 286.023 248.166 287.016C248.166 288.009 248.972 288.814 249.965 288.814Z" fill="#BDBDBD"/>
<path d="M249.965 301.963C251.145 301.963 252.101 301.007 252.101 299.827C252.101 298.648 251.145 297.692 249.965 297.692C248.785 297.692 247.829 298.648 247.829 299.827C247.829 301.007 248.785 301.963 249.965 301.963Z" fill="#BDBDBD"/>
<path d="M249.965 315.112C251.331 315.112 252.438 314.005 252.438 312.639C252.438 311.274 251.331 310.167 249.965 310.167C248.599 310.167 247.492 311.274 247.492 312.639C247.492 314.005 248.599 315.112 249.965 315.112Z" fill="#BDBDBD"/>
<path d="M249.964 328.373C251.578 328.373 252.887 327.065 252.887 325.451C252.887 323.837 251.578 322.529 249.964 322.529C248.35 322.529 247.042 323.837 247.042 325.451C247.042 327.065 248.35 328.373 249.964 328.373Z" fill="#BDBDBD"/>
<path d="M249.964 341.409C251.765 341.409 253.224 339.95 253.224 338.15C253.224 336.35 251.765 334.891 249.964 334.891C248.164 334.891 246.704 336.35 246.704 338.15C246.704 339.95 248.164 341.409 249.964 341.409Z" fill="#BDBDBD"/>
<path d="M249.964 354.557C251.951 354.557 253.561 352.947 253.561 350.961C253.561 348.975 251.951 347.365 249.964 347.365C247.978 347.365 246.367 348.975 246.367 350.961C246.367 352.947 247.978 354.557 249.964 354.557Z" fill="#BDBDBD"/>
<path d="M249.965 367.82C252.2 367.82 254.012 366.008 254.012 363.774C254.012 361.539 252.2 359.728 249.965 359.728C247.73 359.728 245.918 361.539 245.918 363.774C245.918 366.008 247.73 367.82 249.965 367.82Z" fill="#BDBDBD"/>
<path d="M249.965 380.968C252.387 380.968 254.35 379.006 254.35 376.585C254.35 374.164 252.387 372.202 249.965 372.202C247.544 372.202 245.581 374.164 245.581 376.585C245.581 379.006 247.544 380.968 249.965 380.968Z" fill="#BDBDBD"/>
<path d="M249.965 394.118C252.573 394.118 254.687 392.004 254.687 389.397C254.687 386.79 252.573 384.677 249.965 384.677C247.358 384.677 245.244 386.79 245.244 389.397C245.244 392.004 247.358 394.118 249.965 394.118Z" fill="#BDBDBD"/>
<path d="M249.964 407.378C252.82 407.378 255.135 405.064 255.135 402.209C255.135 399.354 252.82 397.039 249.964 397.039C247.108 397.039 244.793 399.354 244.793 402.209C244.793 405.064 247.108 407.378 249.964 407.378Z" fill="#BDBDBD"/>
<path d="M262.443 252.513C263.188 252.513 263.792 251.909 263.792 251.165C263.792 250.42 263.188 249.816 262.443 249.816C261.698 249.816 261.094 250.42 261.094 251.165C261.094 251.909 261.698 252.513 262.443 252.513Z" fill="#BDBDBD"/>
<path d="M262.443 265.776C263.437 265.776 264.242 264.97 264.242 263.977C264.242 262.984 263.437 262.179 262.443 262.179C261.449 262.179 260.644 262.984 260.644 263.977C260.644 264.97 261.449 265.776 262.443 265.776Z" fill="#BDBDBD"/>
<path d="M262.443 278.925C263.623 278.925 264.579 277.969 264.579 276.789C264.579 275.61 263.623 274.654 262.443 274.654C261.263 274.654 260.307 275.61 260.307 276.789C260.307 277.969 261.263 278.925 262.443 278.925Z" fill="#BDBDBD"/>
<path d="M262.443 291.96C263.809 291.96 264.916 290.853 264.916 289.488C264.916 288.122 263.809 287.015 262.443 287.015C261.077 287.015 259.97 288.122 259.97 289.488C259.97 290.853 261.077 291.96 262.443 291.96Z" fill="#BDBDBD"/>
<path d="M262.443 305.222C264.057 305.222 265.366 303.914 265.366 302.3C265.366 300.686 264.057 299.378 262.443 299.378C260.829 299.378 259.521 300.686 259.521 302.3C259.521 303.914 260.829 305.222 262.443 305.222Z" fill="#BDBDBD"/>
<path d="M262.443 318.37C264.244 318.37 265.703 316.911 265.703 315.111C265.703 313.311 264.244 311.852 262.443 311.852C260.643 311.852 259.183 313.311 259.183 315.111C259.183 316.911 260.643 318.37 262.443 318.37Z" fill="#BDBDBD"/>
<path d="M262.443 331.518C264.43 331.518 266.04 329.908 266.04 327.922C266.04 325.936 264.43 324.327 262.443 324.327C260.457 324.327 258.846 325.936 258.846 327.922C258.846 329.908 260.457 331.518 262.443 331.518Z" fill="#BDBDBD"/>
<path d="M262.443 344.781C264.678 344.781 266.49 342.969 266.49 340.735C266.49 338.5 264.678 336.689 262.443 336.689C260.208 336.689 258.396 338.5 258.396 340.735C258.396 342.969 260.208 344.781 262.443 344.781Z" fill="#BDBDBD"/>
<path d="M262.443 357.93C264.864 357.93 266.827 355.968 266.827 353.547C266.827 351.126 264.864 349.164 262.443 349.164C260.022 349.164 258.059 351.126 258.059 353.547C258.059 355.968 260.022 357.93 262.443 357.93Z" fill="#BDBDBD"/>
<path d="M262.443 370.967C265.051 370.967 267.165 368.853 267.165 366.246C267.165 363.64 265.051 361.526 262.443 361.526C259.835 361.526 257.721 363.64 257.721 366.246C257.721 368.853 259.835 370.967 262.443 370.967Z" fill="#BDBDBD"/>
<path d="M262.443 384.227C265.299 384.227 267.614 381.913 267.614 379.058C267.614 376.203 265.299 373.888 262.443 373.888C259.587 373.888 257.272 376.203 257.272 379.058C257.272 381.913 259.587 384.227 262.443 384.227Z" fill="#BDBDBD"/>
<path d="M262.443 397.375C265.485 397.375 267.951 394.91 267.951 391.869C267.951 388.828 265.485 386.363 262.443 386.363C259.401 386.363 256.935 388.828 256.935 391.869C256.935 394.91 259.401 397.375 262.443 397.375Z" fill="#BDBDBD"/>
<path d="M275.033 229.362C275.778 229.362 276.382 228.758 276.382 228.014C276.382 227.269 275.778 226.665 275.033 226.665C274.288 226.665 273.684 227.269 273.684 228.014C273.684 228.758 274.288 229.362 275.033 229.362Z" fill="#BDBDBD"/>
<path d="M275.034 242.624C276.028 242.624 276.833 241.819 276.833 240.826C276.833 239.833 276.028 239.028 275.034 239.028C274.041 239.028 273.235 239.833 273.235 240.826C273.235 241.819 274.041 242.624 275.034 242.624Z" fill="#BDBDBD"/>
<path d="M275.034 255.773C276.214 255.773 277.17 254.817 277.17 253.637C277.17 252.458 276.214 251.502 275.034 251.502C273.854 251.502 272.898 252.458 272.898 253.637C272.898 254.817 273.854 255.773 275.034 255.773Z" fill="#BDBDBD"/>
<path d="M275.034 268.922C276.4 268.922 277.507 267.815 277.507 266.45C277.507 265.084 276.4 263.977 275.034 263.977C273.668 263.977 272.561 265.084 272.561 266.45C272.561 267.815 273.668 268.922 275.034 268.922Z" fill="#BDBDBD"/>
<path d="M275.033 282.183C276.647 282.183 277.956 280.875 277.956 279.261C277.956 277.647 276.647 276.339 275.033 276.339C273.419 276.339 272.11 277.647 272.11 279.261C272.11 280.875 273.419 282.183 275.033 282.183Z" fill="#BDBDBD"/>
<path d="M275.033 295.331C276.833 295.331 278.293 293.872 278.293 292.072C278.293 290.272 276.833 288.813 275.033 288.813C273.233 288.813 271.773 290.272 271.773 292.072C271.773 293.872 273.233 295.331 275.033 295.331Z" fill="#BDBDBD"/>
<path d="M275.033 308.368C277.02 308.368 278.63 306.758 278.63 304.772C278.63 302.786 277.02 301.176 275.033 301.176C273.046 301.176 271.436 302.786 271.436 304.772C271.436 306.758 273.046 308.368 275.033 308.368Z" fill="#BDBDBD"/>
<path d="M275.034 321.63C277.269 321.63 279.081 319.818 279.081 317.584C279.081 315.349 277.269 313.538 275.034 313.538C272.799 313.538 270.987 315.349 270.987 317.584C270.987 319.818 272.799 321.63 275.034 321.63Z" fill="#BDBDBD"/>
<path d="M275.034 334.779C277.456 334.779 279.418 332.817 279.418 330.396C279.418 327.975 277.456 326.013 275.034 326.013C272.613 326.013 270.65 327.975 270.65 330.396C270.65 332.817 272.613 334.779 275.034 334.779Z" fill="#BDBDBD"/>
<path d="M275.034 347.928C277.642 347.928 279.756 345.814 279.756 343.208C279.756 340.601 277.642 338.487 275.034 338.487C272.426 338.487 270.312 340.601 270.312 343.208C270.312 345.814 272.426 347.928 275.034 347.928Z" fill="#BDBDBD"/>
<path d="M275.033 361.188C277.889 361.188 280.204 358.874 280.204 356.019C280.204 353.164 277.889 350.849 275.033 350.849C272.177 350.849 269.862 353.164 269.862 356.019C269.862 358.874 272.177 361.188 275.033 361.188Z" fill="#BDBDBD"/>
<path d="M275.033 374.336C278.075 374.336 280.541 371.871 280.541 368.83C280.541 365.789 278.075 363.324 275.033 363.324C271.991 363.324 269.525 365.789 269.525 368.83C269.525 371.871 271.991 374.336 275.033 374.336Z" fill="#BDBDBD"/>
<path d="M275.033 387.373C278.261 387.373 280.878 384.757 280.878 381.529C280.878 378.302 278.261 375.686 275.033 375.686C271.805 375.686 269.188 378.302 269.188 381.529C269.188 384.757 271.805 387.373 275.033 387.373Z" fill="#BDBDBD"/>
<path d="M275.034 400.635C278.511 400.635 281.329 397.818 281.329 394.342C281.329 390.866 278.511 388.048 275.034 388.048C271.557 388.048 268.739 390.866 268.739 394.342C268.739 397.818 271.557 400.635 275.034 400.635Z" fill="#BDBDBD"/>
<path d="M287.512 206.323C288.257 206.323 288.861 205.719 288.861 204.975C288.861 204.23 288.257 203.626 287.512 203.626C286.767 203.626 286.163 204.23 286.163 204.975C286.163 205.719 286.767 206.323 287.512 206.323Z" fill="#BDBDBD"/>
<path d="M287.512 219.586C288.505 219.586 289.311 218.78 289.311 217.787C289.311 216.794 288.505 215.989 287.512 215.989C286.518 215.989 285.713 216.794 285.713 217.787C285.713 218.78 286.518 219.586 287.512 219.586Z" fill="#BDBDBD"/>
<path d="M287.512 232.735C288.692 232.735 289.648 231.779 289.648 230.599C289.648 229.42 288.692 228.464 287.512 228.464C286.332 228.464 285.376 229.42 285.376 230.599C285.376 231.779 286.332 232.735 287.512 232.735Z" fill="#BDBDBD"/>
<path d="M287.512 245.883C288.878 245.883 289.985 244.776 289.985 243.411C289.985 242.045 288.878 240.938 287.512 240.938C286.146 240.938 285.039 242.045 285.039 243.411C285.039 244.776 286.146 245.883 287.512 245.883Z" fill="#BDBDBD"/>
<path d="M287.512 259.032C289.126 259.032 290.435 257.724 290.435 256.11C290.435 254.496 289.126 253.188 287.512 253.188C285.898 253.188 284.589 254.496 284.589 256.11C284.589 257.724 285.898 259.032 287.512 259.032Z" fill="#BDBDBD"/>
<path d="M287.512 272.18C289.312 272.18 290.772 270.721 290.772 268.921C290.772 267.121 289.312 265.662 287.512 265.662C285.712 265.662 284.252 267.121 284.252 268.921C284.252 270.721 285.712 272.18 287.512 272.18Z" fill="#BDBDBD"/>
<path d="M287.512 285.329C289.499 285.329 291.109 283.719 291.109 281.733C291.109 279.747 289.499 278.137 287.512 278.137C285.525 278.137 283.915 279.747 283.915 281.733C283.915 283.719 285.525 285.329 287.512 285.329Z" fill="#BDBDBD"/>
<path d="M287.512 298.592C289.747 298.592 291.559 296.78 291.559 294.546C291.559 292.311 289.747 290.5 287.512 290.5C285.277 290.5 283.465 292.311 283.465 294.546C283.465 296.78 285.277 298.592 287.512 298.592Z" fill="#BDBDBD"/>
<path d="M287.512 311.74C289.933 311.74 291.896 309.778 291.896 307.357C291.896 304.936 289.933 302.974 287.512 302.974C285.09 302.974 283.127 304.936 283.127 307.357C283.127 309.778 285.09 311.74 287.512 311.74Z" fill="#BDBDBD"/>
<path d="M287.512 324.889C290.12 324.889 292.233 322.775 292.233 320.168C292.233 317.562 290.12 315.448 287.512 315.448C284.904 315.448 282.79 317.562 282.79 320.168C282.79 322.775 284.904 324.889 287.512 324.889Z" fill="#BDBDBD"/>
<path d="M287.512 338.037C290.368 338.037 292.683 335.723 292.683 332.868C292.683 330.013 290.368 327.698 287.512 327.698C284.656 327.698 282.341 330.013 282.341 332.868C282.341 335.723 284.656 338.037 287.512 338.037Z" fill="#BDBDBD"/>
<path d="M287.512 351.186C290.554 351.186 293.02 348.72 293.02 345.679C293.02 342.638 290.554 340.173 287.512 340.173C284.47 340.173 282.004 342.638 282.004 345.679C282.004 348.72 284.47 351.186 287.512 351.186Z" fill="#BDBDBD"/>
<path d="M287.512 364.335C290.74 364.335 293.357 361.719 293.357 358.491C293.357 355.264 290.74 352.648 287.512 352.648C284.284 352.648 281.667 355.264 281.667 358.491C281.667 361.719 284.284 364.335 287.512 364.335Z" fill="#BDBDBD"/>
<path d="M287.512 377.597C290.989 377.597 293.807 374.78 293.807 371.304C293.807 367.828 290.989 365.01 287.512 365.01C284.035 365.01 281.217 367.828 281.217 371.304C281.217 374.78 284.035 377.597 287.512 377.597Z" fill="#BDBDBD"/>
<path d="M300.102 183.285C300.847 183.285 301.451 182.682 301.451 181.937C301.451 181.192 300.847 180.589 300.102 180.589C299.357 180.589 298.753 181.192 298.753 181.937C298.753 182.682 299.357 183.285 300.102 183.285Z" fill="#BDBDBD"/>
<path d="M300.103 196.548C301.096 196.548 301.902 195.742 301.902 194.749C301.902 193.756 301.096 192.951 300.103 192.951C299.109 192.951 298.304 193.756 298.304 194.749C298.304 195.742 299.109 196.548 300.103 196.548Z" fill="#BDBDBD"/>
<path d="M300.103 209.584C301.283 209.584 302.239 208.628 302.239 207.448C302.239 206.269 301.283 205.313 300.103 205.313C298.923 205.313 297.967 206.269 297.967 207.448C297.967 208.628 298.923 209.584 300.103 209.584Z" fill="#BDBDBD"/>
<path d="M300.103 222.732C301.469 222.732 302.576 221.625 302.576 220.26C302.576 218.894 301.469 217.787 300.103 217.787C298.737 217.787 297.63 218.894 297.63 220.26C297.63 221.625 298.737 222.732 300.103 222.732Z" fill="#BDBDBD"/>
<path d="M300.103 235.993C301.717 235.993 303.025 234.685 303.025 233.071C303.025 231.457 301.717 230.149 300.103 230.149C298.489 230.149 297.18 231.457 297.18 233.071C297.18 234.685 298.489 235.993 300.103 235.993Z" fill="#BDBDBD"/>
<path d="M300.102 249.141C301.902 249.141 303.362 247.682 303.362 245.882C303.362 244.083 301.902 242.624 300.102 242.624C298.302 242.624 296.842 244.083 296.842 245.882C296.842 247.682 298.302 249.141 300.102 249.141Z" fill="#BDBDBD"/>
<path d="M300.102 262.291C302.088 262.291 303.699 260.681 303.699 258.695C303.699 256.709 302.088 255.099 300.102 255.099C298.115 255.099 296.505 256.709 296.505 258.695C296.505 260.681 298.115 262.291 300.102 262.291Z" fill="#BDBDBD"/>
<path d="M300.103 275.553C302.338 275.553 304.15 273.742 304.15 271.507C304.15 269.272 302.338 267.461 300.103 267.461C297.868 267.461 296.056 269.272 296.056 271.507C296.056 273.742 297.868 275.553 300.103 275.553Z" fill="#BDBDBD"/>
<path d="M300.103 288.589C302.524 288.589 304.487 286.627 304.487 284.206C304.487 281.785 302.524 279.823 300.103 279.823C297.681 279.823 295.719 281.785 295.719 284.206C295.719 286.627 297.681 288.589 300.103 288.589Z" fill="#BDBDBD"/>
<path d="M300.103 301.738C302.711 301.738 304.825 299.624 304.825 297.018C304.825 294.411 302.711 292.297 300.103 292.297C297.495 292.297 295.381 294.411 295.381 297.018C295.381 299.624 297.495 301.738 300.103 301.738Z" fill="#BDBDBD"/>
<path d="M300.102 314.998C302.958 314.998 305.273 312.684 305.273 309.829C305.273 306.974 302.958 304.659 300.102 304.659C297.246 304.659 294.931 306.974 294.931 309.829C294.931 312.684 297.246 314.998 300.102 314.998Z" fill="#BDBDBD"/>
<path d="M300.102 328.148C303.144 328.148 305.61 325.682 305.61 322.641C305.61 319.6 303.144 317.135 300.102 317.135C297.06 317.135 294.594 319.6 294.594 322.641C294.594 325.682 297.06 328.148 300.102 328.148Z" fill="#BDBDBD"/>
<path d="M300.102 341.296C303.33 341.296 305.947 338.68 305.947 335.452C305.947 332.225 303.33 329.609 300.102 329.609C296.874 329.609 294.257 332.225 294.257 335.452C294.257 338.68 296.874 341.296 300.102 341.296Z" fill="#BDBDBD"/>
<path d="M300.103 354.558C303.58 354.558 306.398 351.741 306.398 348.265C306.398 344.789 303.58 341.971 300.103 341.971C296.626 341.971 293.807 344.789 293.807 348.265C293.807 351.741 296.626 354.558 300.103 354.558Z" fill="#BDBDBD"/>
<path d="M310.444 220.26C310.557 222.507 310.557 224.755 310.557 227.002C310.557 257.997 302.611 288.475 287.477 315.526C272.344 342.578 250.529 365.301 224.114 381.527C227.815 387.436 231.986 393.037 236.587 398.276C260.66 384.411 280.652 364.446 294.546 340.394C308.441 316.343 315.747 289.054 315.728 261.279C315.823 247.431 314.046 233.633 310.444 220.26Z" fill="#BDBDBD"/>
</g>
</svg>
